<svg xmlns="http://www.w3.org/2000/svg" viewBox="0 0 859.53 200.98"><defs><style>.cls-1{fill:#e9e0d2;}.cls-2{opacity:0.38;}</style></defs><g id="Layer_2" data-name="Layer 2"><g id="Layer_1_copy" data-name="Layer 1 copy"><rect class="cls-1" x="0.59" y="0.28" width="858.93" height="14.55"/><rect class="cls-1" x="0.59" y="149.29" width="168.76" height="14.55"/><g class="cls-2"><path class="cls-1" d="M196,150.67v49.6h12.4v-37.2h12.4v37.2h12.4v-49.6Z"/><path class="cls-1" d="M275.74,150.72l-36-.05v49.6h35.75v-15.4h-11v4h-6.24L275.74,171Zm-11.35,13.52-12.07,12v-14h12.07Z"/><path class="cls-1" d="M362.08,150.72l-36-.05v49.6H361.8v-15.4h-11v4H344.6L362.08,171Zm-11.36,13.52-12.07,12v-14h12.07Z"/><path class="cls-1" d="M282.18,150.73v49.48h12.43v-6l25-25V150.73Zm25,13.79-12.57,11.66V163.11h12.57Z"/><polygon class="cls-1" points="368.62 150.67 405.82 150.67 405.82 163.07 381.02 163.07 381.02 179.19 388.46 186.63 405.82 186.63 405.82 200.27 383.5 200.27 368.62 185.39 368.62 150.67"/><polygon class="cls-1" points="411.78 150.67 448.98 150.67 448.98 164.31 437.82 164.31 437.82 200.27 424.18 200.27 424.18 164.31 411.78 164.31 411.78 150.67"/><path class="cls-1" d="M454.83,151.44v49.48h12.43v-6l25-25V151.44Zm25,13.79-12.57,11.65V163.81h12.57Z"/><path class="cls-1" d="M498.11,151.38V201h37.2v-49.6Zm24.8,37.2h-12.4v-24.8h12.4Z"/><path class="cls-1" d="M563.32,138v4.48h-6.9V138h-6.89v9.69h20.68V138Z"/><polygon class="cls-1" points="585.05 151.4 596.21 151.4 596.21 178.09 609.85 164.11 609.85 151.4 621.01 151.4 621.01 170.46 614.81 178.09 621.01 178.09 621.01 200.96 609.85 200.96 609.85 181.9 596.21 194.6 596.21 200.96 585.05 200.96 585.05 151.4"/><polygon class="cls-1" points="578.2 151.43 578.2 200.94 566.04 200.94 566.04 182.27 553.86 170.09 553.86 200.94 541.54 200.94 541.54 151.43 554.71 151.43 555.16 151.88 566.2 162.92 566.2 151.43 578.2 151.43"/><path class="cls-1" d="M628.82,150.69v49.56H640v-6.36l12.4-11.35v17.71h11.19V150.69ZM652.4,164.5,640,176.09V162.18H652.4Z"/></g><path class="cls-1" d="M255.05,39.41H191.64V124h23.25V113.39l19-21.14V124h21.14V83.8H244.48l10.57-10.57ZM212.78,83.8V60.55H236Z"/><path class="cls-1" d="M560,39.41H496.58V124h23.25V113.39l19-21.14V124H560V83.8H549.42L560,73.23ZM517.71,83.8V60.55H541Z"/><polygon class="cls-1" points="420.34 39.41 483.75 39.41 483.75 62.66 464.73 62.66 464.73 123.96 441.48 123.96 441.48 62.66 420.34 62.66 420.34 39.41"/><polygon class="cls-1" points="684.05 39.49 703.08 39.49 703.08 84.97 726.33 61.15 726.33 39.49 745.35 39.49 745.35 71.98 734.78 84.97 745.35 84.97 745.35 123.96 726.33 123.96 726.33 91.47 703.08 113.13 703.08 123.96 684.05 123.96 684.05 39.49"/><path class="cls-1" d="M572.82,39.41V124h63.41V39.41Zm42.27,63.41H594V60.55h21.14Z"/><path class="cls-1" d="M39,39.62V124H60.17V113.71L102.78,71.1V39.62ZM81.63,63.13,60.19,83V60.72H81.63Z"/><rect class="cls-1" x="649.09" y="39.49" width="21.03" height="84.47"/><path class="cls-1" d="M177.82,39.71l-61.4-.09V124h60.93V97.77H158.67v6.83H148l29.78-30.42Zm-19.36,23L137.89,83.06V59.22h20.57Z"/><path class="cls-1" d="M330.27,39.5l-61.4-.09V124h60.94V97.71H311.13v6.85H300.49l29.78-30.5Zm-19.36,23L290.35,83V59.05h20.56Z"/><polygon class="cls-1" points="344.11 39.41 407.52 39.41 407.52 64.78 386.38 64.78 386.38 60.55 365.25 60.55 365.25 64.78 407.52 104.94 407.52 123.96 344.11 123.96 344.11 98.6 365.25 98.6 365.25 102.82 375.82 102.82 344.11 71.12 344.11 39.41"/><path class="cls-1" d="M761.33,39.5V124h19V113.12l21.14-19.34V124h19.07V39.5ZM801.51,63,780.44,82.79V59.07h21.07Z"/><rect class="cls-1" x="-74.46" y="74.74" width="163.47" height="14.55" transform="translate(89.29 74.74) rotate(90)"/><rect class="cls-1" x="690.18" y="149.53" width="168.76" height="14.55" transform="translate(1549.11 313.61) rotate(-180)"/><rect class="cls-1" x="770.52" y="74.98" width="163.47" height="14.55" transform="translate(934.51 -770) rotate(90)"/></g></g></svg>
