<?xml version="1.0" encoding="utf-8"?>
<!-- Generator: Adobe Illustrator 24.0.1, SVG Export Plug-In . SVG Version: 6.00 Build 0)  -->
<svg version="1.1" id="Layer_1" xmlns="http://www.w3.org/2000/svg" xmlns:xlink="http://www.w3.org/1999/xlink" x="0px" y="0px"
	 viewBox="0 0 273 52" style="enable-background:new 0 0 273 52;" xml:space="preserve">
<style type="text/css">
	.st0{fill-rule:evenodd;clip-rule:evenodd;fill:#59191F;}
</style>
<path class="st0" d="M28,12V8H12v16h12v4H12v20v4c0,0,0,0,0,0c-2.4,0-4,0-4,0H0V32v-8v-8V8V0h8h24v8v4H28z"/>
<path class="st0" d="M70,47v5H44v-5h-4V0h12v47h16V0h4v47H70z"/>
<path class="st0" d="M113,39v13h-4V41h-4v-4v-2h-4v-4l0,0h-4v-6h-4v-4v-8h4v6h4v4h4v6h4V0h4v35l0,0V39L113,39z M81,0h12v52H81V0z"/>
<path class="st0" d="M150,36h-4v-8h4V36z M154,52h-4V36h4V52z M134,28v24h-12V0h12v24h12v4H134z M150,16v8h-4v-8H150z M154,0v16h-4
	V0H154z"/>
<path class="st0" d="M171,52h-8V32v-8v-8V8V0h8h24v8v4h-4V8h-16v16h12v4h-12v20h16v-4h4v4v4H171z"/>
<path class="st0" d="M228,22v-4V0h4v18v4H228z M224,26v-4h4v4H224z M216,52V28h-4v-4v-4h-4v-4h-4V0h8v16h4v6h4v4h4v26H216z"/>
<path class="st0" d="M269,28v4h-24v-4h-4V4h4V0h24v4h2v8h-4V4h-14v24H269z M273,48h-4V32h4V48z M245,52v-4h-4v-8h8v8h20v4H245z"/>
</svg>
