<svg xmlns="http://www.w3.org/2000/svg" viewBox="0 0 293.48 64.22"><defs><style>.cls-1{fill:#59191f;}</style></defs><g id="Layer_2" data-name="Layer 2"><g id="Layer_1-2" data-name="Layer 1"><path class="cls-1" d="M78.94,42.37a19.65,19.65,0,0,0,2.22-1.06Z"/><path class="cls-1" d="M215.7,39.7c-.16.34-.29.68-.43,1l.7-1.49.7-1.52C216.33,38.34,216,39,215.7,39.7ZM81.16,41.31l-2.22,1.06A19.65,19.65,0,0,0,81.16,41.31Z"/><path class="cls-1" d="M292,18.43l-63.32.83c2.44-3.28,5-6.49,7.55-9.67l3.91-4.8,2-2.4c.46-.57,1-1.26.29-1.89-1.24-1.1-2.62-.2-3.46.89-4.61,6.05-9.61,11.8-14.15,17.92l-11,.15a1.5,1.5,0,0,0,0,3l8.79-.12c-.74,1-1.39,2-2.12,3l-.09.13a7.22,7.22,0,0,1-1.54,1.05l-2,1.43c-5.38,3.77-10.78,7.74-16.83,10.39a20,20,0,0,1-6.67,2.1,1.59,1.59,0,0,1-1.55-.54,1.62,1.62,0,0,1-.07-1.09,15.3,15.3,0,0,1,4.44-7.51c2-2,4.4-4.12,7.13-5.07.24-.09.26,0,.1.38a.21.21,0,0,0-.09.14c-.4.62-.25,1.16.46,1.63a2.48,2.48,0,0,0,1.28.33c1.56.08,2.2-1.83,2.42-3.1a1.81,1.81,0,0,0-.8-2c-1.95-1.33-5.43.24-7.23,1.2-3.21,1.71-6.1,4-9.13,6a97.59,97.59,0,0,1-10,5.91c-3.31,1.65-7.17,3.53-10.87,4-1.09.14-2.86.31-3.17-1.1a3,3,0,0,1,.2-1.68,10.6,10.6,0,0,1,1.08-2.22,10.1,10.1,0,0,1,1.18-1.65,1.63,1.63,0,0,0,.62,0,31.58,31.58,0,0,0,6.39-1.92c2.54-1,4.89-2.13,6.67-4.28a2,2,0,0,0,.34-2.46c-1.21-1.78-4.38-1.22-6.11-.73-3.86,1.08-7.47,3.48-11,5.4-7.42,4.08-14.84,8.19-22.27,12.23,1.1-1.28,2.15-2.56,3.17-3.83s2-2.55,3.09-3.83,1.85-2.3,2.77-3.49c1.07-1.36,2.18-2.69,3.28-4,.4-.48,1-1,.7-1.68a1.75,1.75,0,0,0-1.45-.87c-1.25-.11-1.84.86-2.53,1.7q-2.17,1.2-4.27,2.14c-1.41.62-2.71,1.14-3.91,1.58s-2.25.76-3.17,1-1.56.42-2,.52c-.14,0-.26,0-.39,0,.15-.72.71-1.38.88-2.14a2.63,2.63,0,0,0-1.88-3.4,6.81,6.81,0,0,0-4.5.15c-.13,0-.3,0-.43,0a3,3,0,0,0-1.53.33,20.16,20.16,0,0,0-2.3,1.44c-7,4.32-14.09,8.45-20.9,13-.94.6-1.74,1.09-2.41,1.5s-1.07.61-1.19.66a18.3,18.3,0,0,0,1.27-1.45c2.76-3.6,6.06-6.74,8.83-10.33.87-1.12,2.93-3.06,2.33-4.64-.37-1-1.69-1.18-2.6-1.23-2.31-.13-4.71.67-6.93,1.22a18.53,18.53,0,0,1-4,.79,1,1,0,0,0,.36-.28c.63-.65,3-2.4,1.45-3.27a2.09,2.09,0,0,0-2.23-.1,11.1,11.1,0,0,0-1.07.88c-.41.36-.8.74-1.18,1.13a3.22,3.22,0,0,0-1,2.26A1.73,1.73,0,0,0,100,29.2L89.51,34.6c.41-.52.82-1.05,1.21-1.62a14.19,14.19,0,0,0,2-3.75c.42-1.26.76-2.68-.26-3.74-1.64-1.72-4.7-1.21-6.69-.48a29,29,0,0,0-5,2.63l-.79.49c.29-.34.57-.67.82-1s.53-.64.83-1c.67-.78-.2-1.62-1-1.79a9.82,9.82,0,0,0-2.64.1l-1.85.09c-4.34,0-8.73.41-13.07.62-9,.44-18,.79-27,1.3s-18.22.93-27.33,1.38l-7.25.35A1.51,1.51,0,0,0,0,29.73v.05a1.51,1.51,0,0,0,1.57,1.43l75-3.67C71,34.6,65.29,41.61,59.76,48.71c-1.18,1.52-2.36,3-3.53,4.55-2.06,2.64-4.13,5.27-6.16,7.93-.29.37-.58.76-.87,1.16a.93.93,0,0,0-.17.94,1.57,1.57,0,0,0,.8.81,3.1,3.1,0,0,0,1.34.07,1.77,1.77,0,0,0,1-.63c1.56-2,3.13-4,4.69-6C62.19,50.82,67.45,44,73.51,37.91A69,69,0,0,1,80.94,31a29.6,29.6,0,0,1,4-2.77,11.83,11.83,0,0,1,2.23-.94c.33-.1,2.1-.64,2.32-.3a.36.36,0,0,1,0,.23c-.19,2.77-2,5-3.84,6.94a29.16,29.16,0,0,1-7.17,5.25,19.38,19.38,0,0,1-6.91,2A3.94,3.94,0,0,0,70.4,42a.78.78,0,0,0-.43.85,1.17,1.17,0,0,0,.49.92,1.57,1.57,0,0,0,1.19.3,25.63,25.63,0,0,0,5.75-1.1,38.78,38.78,0,0,0,6.64-3c2.2-1.17,4.44-2.26,6.67-3.38,3.75-1.87,7.5-3.77,11.27-5.6a9,9,0,0,1,2-1c2.15-.38,6.33-1.45,7.72-1.69.23-.06.47-.09.7-.14a3.08,3.08,0,0,1,.62-.07,6.93,6.93,0,0,0-.39.62,1.86,1.86,0,0,1-.39.49c-3,3.71-6.23,7.13-9.19,10.83-.41.51-.81,1-1.21,1.55a4.67,4.67,0,0,0-1,2,1.81,1.81,0,0,0,.19,1.37,2,2,0,0,0,1.07.82,3.76,3.76,0,0,0,1.72.15,5.22,5.22,0,0,0,2.07-.71q2.64-1.47,5.44-3.11c1.87-1.08,3.76-2.24,5.7-3.43l7-4.45a14.78,14.78,0,0,0-.75,1.62c-.63,1.64-1.56,3.38-1.42,5.2a3,3,0,0,0,1.91,2.66c2.09.71,4.09-.43,5.71-1.66a33.69,33.69,0,0,0,4.78-4.39,35.32,35.32,0,0,0,2.25-2.83l.09-.06A34.74,34.74,0,0,0,142,33.46c1.75-.59,3.39-1.23,4.88-1.89.76-.35,1.49-.68,2.14-1-.22.28-.46.56-.69.86-1.16,1.4-2.29,2.8-3.39,4.18s-2.22,2.78-3.39,4.2l-6,7.31c-1.88,1.16-3.73,2.33-5.56,3.54s-3.61,2.44-5.3,3.72c-.64.49-1.26,1-1.88,1.49a18.8,18.8,0,0,0-1.78,1.7A11.13,11.13,0,0,0,120,58.74a4.86,4.86,0,0,0-.78,1.34,2.34,2.34,0,0,0-.11,1.38,2.23,2.23,0,0,0,.85,1.26,3.26,3.26,0,0,0,3,.64A6.57,6.57,0,0,0,125.59,62c.47-.36.9-.73,1.31-1.06s.82-.74,1.23-1.13q1.83-1.73,3.48-3.54c1.1-1.21,2.21-2.45,3.31-3.73.58-.62,1.13-1.25,1.66-1.89l1.56-1.88c.29-.21.86-.58,1.71-1.09,6.69-4.06,13.58-7.74,20.43-11.53l4.53-2.48a14,14,0,0,0-1.31,2.51,11.46,11.46,0,0,0-.71,2.88A3.18,3.18,0,0,0,164,41.91a5.74,5.74,0,0,0,3.73,1.42,18.69,18.69,0,0,0,4.06-.28A40,40,0,0,0,181,39.7c2.37-1.17,4.64-2.54,6.93-3.84a11.79,11.79,0,0,1,1.39-.76c-.23.77-.65,1.52-.88,2.31a4.19,4.19,0,0,0,.69,4.32,4.71,4.71,0,0,0,3.61,1.3,15.56,15.56,0,0,0,3.36-.37c7-1.35,12.86-6,18.59-10,.65-.45,1.31-.91,2-1.39-.22.37-.43.75-.64,1.11-1.4,2.48-2.76,5-4,7.54-1,1.94-2.07,3.87-2.86,5.88-.56,1.46,1.53,2,2.8,1.27a1.59,1.59,0,0,0,.64-.55c.92-1.91,1.78-3.89,2.69-5.84v0c.14-.32.27-.66.43-1,.31-.7.63-1.36,1-2l-.7,1.52c.63-1.34,1.3-2.67,2-4a141.56,141.56,0,0,1,8.42-13L292,21.43a1.5,1.5,0,1,0,0-3ZM174.88,28.59a8.67,8.67,0,0,1,1.67-.87c.29-.14.63-.27,1-.41a5.61,5.61,0,0,1,1.19-.3,11,11,0,0,1-4.16,2.52c-.78.34-1.59.67-2.42,1A13.33,13.33,0,0,1,174.88,28.59ZM78.94,42.37l2.22-1.06A19.65,19.65,0,0,1,78.94,42.37Zm52.84-6.83c-.57.65-1.15,1.29-1.74,1.93a25,25,0,0,1-2.21,2c-.4.33-.8.65-1.22.94s-.81.48-1.2.75v-.13a9.59,9.59,0,0,1,.74-3.16,12.09,12.09,0,0,1,.95-2.19c.18-.28.35-.58.52-.88a13.18,13.18,0,0,1,1.3-2,1.77,1.77,0,0,0,.63.84A5.08,5.08,0,0,0,132.31,35C132.13,35.14,132,35.34,131.78,35.54Zm4.41-7a4.93,4.93,0,0,1-.72,1.76c-.2.39-.42.77-.65,1.15a8.13,8.13,0,0,0-.6,1,3.09,3.09,0,0,1-.53,0c-.65,0-1.6-.1-1.6-1a3.4,3.4,0,0,1,1.43-2.27,5.34,5.34,0,0,1,1.24-.68c.21-.07.42-.14.64-.19s.79-.09.79,0A.48.48,0,0,1,136.19,28.57Zm-8.25,27.17c-.21.23-.42.46-.65.68l-2.22,2.22a16.86,16.86,0,0,1-2.49,2,6.77,6.77,0,0,1,1.34-1.78c.56-.53,1.12-1.06,1.7-1.58s1-.79,1.49-1.17,1-.76,1.48-1.16C128.37,55.23,128.15,55.48,127.94,55.74Z"/><path class="cls-1" d="M161.29,18.86a1.76,1.76,0,0,1-.27.93l-.51.8a1.72,1.72,0,0,1-3.17-.93,1.76,1.76,0,0,1,.27-.93l.51-.8a1.72,1.72,0,0,1,3.17.93Z"/><path class="cls-1" d="M216.67,37.69l-.7,1.52-.7,1.49c.14-.32.27-.66.43-1C216,39,216.33,38.34,216.67,37.69Z"/></g></g></svg>
