<svg xmlns="http://www.w3.org/2000/svg" xmlns:xlink="http://www.w3.org/1999/xlink" viewBox="0 0 1873.63 303.23"><defs><style>.cls-1{fill:url(#linear-gradient);}.cls-2{fill:#59191f;}.cls-3{fill:#59191f;}</style><linearGradient id="linear-gradient" x1="353.9" y1="46.58" x2="353.9" y2="227.91" gradientUnits="userSpaceOnUse"><stop offset="0" stop-color="#59191f"/><stop offset="1" stop-color="#59191f"/></linearGradient></defs><title>Asset 1</title><g id="Layer_2" data-name="Layer 2"><g id="Layer_1-2" data-name="Layer 1"><path class="cls-1" d="M353.9,303.23a37,37,0,0,1-37-37V37a37,37,0,1,1,73.93,0V266.26A37,37,0,0,1,353.9,303.23Z"/><path class="cls-2" d="M353.87,303.23a37,37,0,0,1-30.38-58L482,16a37,37,0,0,1,60.82,42L384.31,287.28A36.92,36.92,0,0,1,353.87,303.23Z"/><path class="cls-3" d="M36.94,303.23a37,37,0,0,1-30.38-58L165,16A37,37,0,0,1,232.4,37V266.26a37,37,0,1,1-73.93,0V155.47L67.38,287.28A36.93,36.93,0,0,1,36.94,303.23Z"/><path class="cls-3" d="M195.4,303.23a37,37,0,0,1-30.37-58L323.49,16a37,37,0,1,1,60.82,42L225.85,287.28A37,37,0,0,1,195.4,303.23Z"/><path class="cls-2" d="M512.4,303.23a36.92,36.92,0,0,1-30.44-16L402.73,172.63a37,37,0,0,1,60.82-42l79.23,114.65a37,37,0,0,1-30.38,58Z"/><path class="cls-3" d="M726.74,118.79a9.06,9.06,0,0,1,9.13-9.12h2a9.34,9.34,0,0,1,8.29,4.74l22.05,35.9,22.16-36a8.92,8.92,0,0,1,8.17-4.62h2a9.05,9.05,0,0,1,9.12,9.12v65.89a9.07,9.07,0,1,1-18.13,0V143.32l-16,24.65c-1.89,2.84-4.26,4.62-7.58,4.62s-5.69-1.78-7.59-4.62l-15.76-24.29v41.23a8.89,8.89,0,0,1-9,8.89,8.8,8.8,0,0,1-8.89-8.89Z"/><path class="cls-3" d="M857.78,161.1,831,124.72a10.78,10.78,0,0,1-2.25-6.52,8.9,8.9,0,0,1,9.12-8.77c4.15,0,6.75,2.25,9,5.57L867,144l20.5-29.27c2.25-3.32,5-5.45,8.77-5.45,5.57,0,8.89,3.91,8.89,8.89a11.38,11.38,0,0,1-2.37,6.4L876,160.74v23.94a9.13,9.13,0,0,1-18.25,0Z"/><path class="cls-3" d="M924.11,118.55a9.13,9.13,0,0,1,18.25,0V146.4L976,113c2.26-2.25,4.51-3.55,7.71-3.55a8.22,8.22,0,0,1,8.41,8.41,9.13,9.13,0,0,1-3.32,6.88l-23.34,21.8,25.48,32a9.69,9.69,0,0,1,2.48,6.39c0,5.1-3.91,8.89-9.24,8.89-3.55,0-5.69-1.78-7.7-4.38l-23.7-31-10.43,9.72v16.59a9.13,9.13,0,0,1-18.25,0Z"/><path class="cls-3" d="M1015,184v-64.7a9.06,9.06,0,0,1,9.12-9.13h46a8.19,8.19,0,0,1,8.18,8.18,8.09,8.09,0,0,1-8.18,8.05h-37V143.2h31.64a8.2,8.2,0,0,1,8.18,8.18,8.1,8.1,0,0,1-8.18,8.06h-31.64v17.42h37.56a8.19,8.19,0,0,1,8.18,8.17,8.09,8.09,0,0,1-8.18,8.06h-46.57A9.05,9.05,0,0,1,1015,184Z"/><path class="cls-3" d="M1124.6,161.1l-26.78-36.38a10.78,10.78,0,0,1-2.25-6.52,8.91,8.91,0,0,1,9.12-8.77c4.15,0,6.76,2.25,9,5.57l20.14,29,20.5-29.27c2.25-3.32,5-5.45,8.77-5.45,5.57,0,8.89,3.91,8.89,8.89a11.38,11.38,0,0,1-2.37,6.4l-26.78,36.14v23.94a9.13,9.13,0,0,1-18.25,0Z"/><path class="cls-3" d="M1190.93,119.27a9.06,9.06,0,0,1,9.13-9.13h29.39c9.48,0,16.94,2.61,21.68,7.35a19,19,0,0,1,5.69,14.1v.24c0,9.36-5,14.57-10.9,17.89,9.6,3.67,15.52,9.24,15.52,20.38v.24c0,15.17-12.32,22.75-31,22.75h-30.33a9.06,9.06,0,0,1-9.13-9.12Zm34.61,24.41c8,0,13.15-2.61,13.15-8.77v-.24c0-5.45-4.27-8.53-12-8.53h-18v17.54Zm4.85,33.41c8.06,0,12.92-2.84,12.92-9v-.24c0-5.57-4.15-9-13.51-9h-21.09v18.25Z"/><path class="cls-3" d="M1279.5,151.85v-.23c0-23.58,18.6-42.9,44.2-42.9s44,19.08,44,42.66v.24c0,23.58-18.6,42.89-44.2,42.89S1279.5,175.43,1279.5,151.85Zm69.09,0v-.23c0-14.22-10.43-26.07-25.13-26.07s-24.88,11.61-24.88,25.83v.24c0,14.22,10.43,26.07,25.12,26.07S1348.59,166.07,1348.59,151.85Z"/><path class="cls-3" d="M1381.87,181.36l28.91-65.29c2-4.51,5.69-7.23,10.67-7.23h1.06c5,0,8.54,2.72,10.55,7.23L1462,181.36a8.91,8.91,0,0,1,.94,3.67,8.65,8.65,0,0,1-8.65,8.77c-4.26,0-7.11-2.49-8.77-6.28l-5.57-13h-36.49l-5.81,13.62a9,9,0,0,1-8.41,5.69,8.4,8.4,0,0,1-8.42-8.53A9.72,9.72,0,0,1,1381.87,181.36Zm51.31-23L1421.69,131l-11.5,27.37Z"/><path class="cls-3" d="M1482.78,119.27a9.06,9.06,0,0,1,9.13-9.13h28.79c10.55,0,18.72,3,24.18,8.41,4.62,4.63,7.11,11.14,7.11,19v.24c0,13-6.52,21.09-16.59,25.24l12.68,15.41c1.77,2.25,3,4.14,3,7a8.49,8.49,0,0,1-8.65,8.41c-4.15,0-6.88-2-9-4.74l-17.77-22.51H1501v18.13a9.13,9.13,0,0,1-18.25,0Zm36.74,31.16c8.88,0,14-4.74,14-11.73v-.24c0-7.82-5.45-11.85-14.34-11.85H1501v23.82Z"/><path class="cls-3" d="M1576.72,119.27a9.06,9.06,0,0,1,9.12-9.13h23.23c26.07,0,44.08,17.9,44.08,41.24v.24c0,23.34-18,41.47-44.08,41.47h-23.23a9.05,9.05,0,0,1-9.12-9.12Zm32.35,57.35c14.93,0,25-10.07,25-24.77v-.23c0-14.7-10.07-25-25-25H1595v50Z"/><path class="cls-2" d="M1680.09,173.42a10,10,0,0,1,10.31,10.07v.24a10.31,10.31,0,0,1-20.61,0v-.24A10,10,0,0,1,1680.09,173.42Z"/><path class="cls-2" d="M1715.94,184v-64.7a9.06,9.06,0,0,1,9.12-9.13h46a8.19,8.19,0,0,1,8.18,8.18,8.09,8.09,0,0,1-8.18,8.05h-37V143.2h31.64a8.2,8.2,0,0,1,8.18,8.18,8.1,8.1,0,0,1-8.18,8.06h-31.64v17.42h37.56a8.19,8.19,0,0,1,8.18,8.17,8.09,8.09,0,0,1-8.18,8.06h-46.57A9.05,9.05,0,0,1,1715.94,184Z"/><path class="cls-2" d="M1801.34,157.54v-39a9.13,9.13,0,0,1,18.25,0v38.52c0,13.51,6.76,20.5,17.89,20.5s17.9-6.76,17.9-19.91V118.55a9.13,9.13,0,0,1,18.25,0V157c0,25.12-14.1,37.44-36.38,37.44S1801.34,182,1801.34,157.54Z"/></g></g></svg>
