<svg xmlns="http://www.w3.org/2000/svg" viewBox="0 0 643.33 164.05"><defs><style>.cls-1{fill:none;stroke:#59191f;stroke-miterlimit:10;stroke-width:10px;}.cls-2{fill:#59191f;}</style></defs><title>Asset 1</title><g id="Layer_2" data-name="Layer 2"><g id="图层_1" data-name="图层 1"><path class="cls-1" d="M604,159.05H39.29A34.29,34.29,0,0,1,5,124.76V39.29A34.29,34.29,0,0,1,39.29,5H604a34.29,34.29,0,0,1,34.29,34.29v85.47A34.29,34.29,0,0,1,604,159.05Z"/><path class="cls-2" d="M59.86,121.74H36.24v-76H59.86Z"/><path class="cls-2" d="M152.92,102.12l-15.29,19.62H70.45v-76H94.07v56.42Z"/><path class="cls-2" d="M258.06,87.15q0,34.59-47.46,34.59h-5q-47.46,0-47.46-34.59V45.7H181.8V87.15q0,10.34,9,13.29,4.85,1.69,19.79,1.69,11.9,0,16.94-2.53,6.84-3.27,6.84-12.44V45.71H258V87.15Z"/><path class="cls-2" d="M401.12,122H375.28l-10-40.18L344,116.05q-4.21,6.65-11.6,6.64a15.54,15.54,0,0,1-7.38-1.9A13.83,13.83,0,0,1,319.6,116L298.19,81.76l-9.91,40.18H262.34l19.72-67.5a12.9,12.9,0,0,1,4.9-6.91,14,14,0,0,1,8.59-2.8q7.49,0,13,8.86l23.2,37.86L355,53.59q5.39-8.87,12.87-8.86a13.9,13.9,0,0,1,8.65,2.8,13.58,13.58,0,0,1,5,6.91Z"/><path class="cls-2" d="M501.57,121.74h-35.8L429.28,96.32v25.42H405.66v-76h23.62V71.75l36.49-26h35.4L446.9,84.31Z"/><path class="cls-2" d="M601.39,84.09q6.75,6.12,6.75,13.71a17.37,17.37,0,0,1-3.69,10.55q-5,6.75-14.76,10.23a57.22,57.22,0,0,1-19.19,3.06H507.12V74.39h65.7a17,17,0,0,0,5.48-.86q3.48-1.29,3.48-3.78c0-1.65-1.16-2.88-3.48-3.67a16.79,16.79,0,0,0-5.48-.86h-65.7L523,45.6H570.5a55.85,55.85,0,0,1,19.3,3.16q9.71,3.59,14.66,10.44A17.94,17.94,0,0,1,608.15,70Q608.14,77.76,601.39,84.09ZM572.73,94h-42v8h42a31.65,31.65,0,0,0,6.95-.74q4.85-1.05,4.84-3.27t-4.84-3.27A31.58,31.58,0,0,0,572.73,94Z"/></g></g></svg>
