<svg xmlns="http://www.w3.org/2000/svg" viewBox="0 0 286.22 268.6"><defs><style>.cls-1,.cls-2{fill:#59191f;}.cls-1{fill-rule:evenodd;}</style></defs><g id="Layer_2" data-name="Layer 2"><g id="Layer_1-2" data-name="Layer 1"><path class="cls-1" d="M247.11,0a11.6,11.6,0,0,1,1.17.08c6.44.72,11.86,6.21,13.12,12.74,1.74,9.63,3.39,19.27,5.08,28.91q9.3,53,18.61,105.92a75.74,75.74,0,0,1,1.12,12.76c0,9.43,0,18.86,0,28.3,0,5.86-4.8,11.39-10.95,11.52-88,.63-176,0-264,0-5.85,0-11-5.25-11.08-11.41-.06-10.15-.27-20.31,0-30.45a74.54,74.54,0,0,1,1.06-10.53Q13,80.46,24.91,13C26.29,5.4,33.39-1,41.61.14c1,.15,1.42.25,2.11.38A565.39,565.39,0,0,0,244.18.23,18.13,18.13,0,0,1,246.32,0a6.69,6.69,0,0,1,.79,0Zm-209,45.74C32,80.43,25.82,115,19.88,149.66a58.1,58.1,0,0,0-.81,9.65v22.92h248.2c0-7.74,0-15.49,0-23.24a58.28,58.28,0,0,0-.81-9.33C260.52,115,254.3,80.43,248.2,45.75l-4.83-27.51a567.84,567.84,0,0,1-200.27,0l-.13,0L38.14,45.75Z"/><path class="cls-2" d="M8.48,248.35h3.77a9.77,9.77,0,0,0,7.64-3.07,13.59,13.59,0,0,0,0-16.47,9.77,9.77,0,0,0-7.64-3.07H8.48v22.61Zm3.77-29.26q8.34,0,13.69,5a18.32,18.32,0,0,1,0,25.9q-5.35,5-13.69,5H0V219.09Z"/><path class="cls-2" d="M53.53,245.94a8.3,8.3,0,0,0,0-10.4,5.78,5.78,0,0,0-8.44,0,7.09,7.09,0,0,0-1.83,5.22A7,7,0,0,0,45.09,246a5.77,5.77,0,0,0,8.44,0ZM38.3,251.26a16.84,16.84,0,0,1,0-21,11.52,11.52,0,0,1,9-4.12,9.3,9.3,0,0,1,8.11,4v-3.73h8.48V255H55.36v-4.15a9.49,9.49,0,0,1-8.23,4.51,11.44,11.44,0,0,1-8.83-4.1Z"/><path class="cls-2" d="M79,223.24a4.93,4.93,0,0,1-7,0,5.37,5.37,0,0,1,0-7.32,4.93,4.93,0,0,1,7,0,5.37,5.37,0,0,1,0,7.32ZM71.29,255V226.46h8.48V255Z"/><polygon class="cls-2" points="87.21 255 87.21 217.15 95.69 217.15 95.69 255 87.21 255 87.21 255"/><polygon class="cls-2" points="110.38 254.44 99.61 226.46 109.24 226.46 115.39 245.13 122.13 226.46 131.01 226.46 113.35 268.6 104.47 268.6 110.38 254.44 110.38 254.44"/><path class="cls-2" d="M152.8,250.11a19.33,19.33,0,0,1,0-26.34,17.23,17.23,0,0,1,12.67-5.19,17.54,17.54,0,0,1,10.32,3.17,16.53,16.53,0,0,1,6.3,8.8H172a6.63,6.63,0,0,0-6.35-3.94,8.74,8.74,0,0,0-6.87,2.81,12.56,12.56,0,0,0,0,15,8.71,8.71,0,0,0,6.87,2.81,6.64,6.64,0,0,0,6.35-3.93h10.12a16.46,16.46,0,0,1-6.3,8.79,17.47,17.47,0,0,1-10.32,3.17,17.23,17.23,0,0,1-12.67-5.19Z"/><polygon class="cls-2" points="185.02 255 185.02 217.15 193.5 217.15 193.5 255 185.02 255 185.02 255"/><path class="cls-2" d="M215.28,245.94a8.27,8.27,0,0,0,0-10.4,5.83,5.83,0,0,0-4.22-1.82,5.77,5.77,0,0,0-4.21,1.84,7.1,7.1,0,0,0-1.84,5.22,7,7,0,0,0,1.84,5.19,5.76,5.76,0,0,0,8.43,0Zm-15.23,5.32a16.84,16.84,0,0,1,0-21,11.54,11.54,0,0,1,9-4.12,9.31,9.31,0,0,1,8.11,4v-3.73h8.48V255h-8.48v-4.15a9.51,9.51,0,0,1-8.24,4.51,11.46,11.46,0,0,1-8.83-4.1Z"/><path class="cls-2" d="M232.32,251.37q-3.84-4-3.84-10.64c0-4.44,1.28-8,3.84-10.62a13.25,13.25,0,0,1,10-4,14.13,14.13,0,0,1,8.58,2.58,12.34,12.34,0,0,1,4.66,7.39h-9.17a4,4,0,0,0-3.9-2.55,4.49,4.49,0,0,0-4,2,10.94,10.94,0,0,0,0,10.38,4.35,4.35,0,0,0,3.85,2,4.7,4.7,0,0,0,2.48-.56,4.81,4.81,0,0,0,1.59-2h9.17a12.68,12.68,0,0,1-4.71,7.31,13.68,13.68,0,0,1-8.53,2.72,13.2,13.2,0,0,1-10-4Z"/><polygon class="cls-2" points="266.23 255 257.75 255 257.75 217.15 266.23 217.15 266.23 238.38 274.81 226.46 286.22 226.46 274.37 241.03 286.22 255 274.96 255 266.23 243.59 266.23 255 266.23 255"/><path class="cls-2" d="M83.73,129.8h8.59q11.07,0,17.4-6.78t6.33-18.19q0-11.42-6.33-18.2t-17.4-6.78H83.73v50Zm8.59-64.64q19,0,31.19,11t12.2,28.59q0,17.57-12.2,28.64T92.32,144.49H64.41V65.16Z"/><path class="cls-2" d="M155.09,133.7q-11.81-11.47-11.81-29.1t11.81-29.1Q166.9,64,184,64a40.74,40.74,0,0,1,23.5,7,36.48,36.48,0,0,1,14.35,19.44H198.76q-4.51-8.7-14.46-8.71T168.65,88q-5.72,6.21-5.71,16.61t5.71,16.61q5.7,6.21,15.65,6.21t14.46-8.7h23.05a36.48,36.48,0,0,1-14.35,19.44,40.74,40.74,0,0,1-23.5,7q-17.07,0-28.87-11.46Z"/></g></g></svg>
